PathFileType	4	(X/Y/Z)	./resultDataOpenSim/trcMotMarkerGrf/sub10/qtm-12-04.trc
DataRate	CameraRate	NumFrames	NumMarkers	Units	OrigDataRate	OrigDataStartFrame	OrigNumFrames
250.000000	250.000000	5	24	m	250.000000	60	478
Frame#	Time	L.Toe.Tip			R.Toe.Tip			L.Ankle.Lat			R.Ankle.Lat			L.Ankle.Med			R.Ankle.Med			L.Heel			R.Heel			L.Knee.Lat			R.Knee.Lat			L.Knee.Med			R.Knee.Med			L.Thigh.Upper			R.Thigh.Upper			L.ASIS			R.ASIS			V.Sacral			L.Acromium			R.Acromium			C7			L.Elbow			R.Elbow			L.Wrist.Lat			R.Wrist.Lat
		X1	Y1	Z1	X2	Y2	Z2	X3	Y3	Z3	X4	Y4	Z4	X5	Y5	Z5	X6	Y6	Z6	X7	Y7	Z7	X8	Y8	Z8	X9	Y9	Z9	X10	Y10	Z10	X11	Y11	Z11	X12	Y12	Z12	X13	Y13	Z13	X14	Y14	Z14	X15	Y15	Z15	X16	Y16	Z16	X17	Y17	Z17	X18	Y18	Z18	X19	Y19	Z19	X20	Y20	Z20	X21	Y21	Z21	X22	Y22	Z22	X23	Y23	Z23	X24	Y24	Z24

60	0.236	-1.362026	0.084323433	-0.22031463	-0.77161964	0.039303319	-0.041514423	-1.3585936	0.22205191	-0.24817433	-0.91161776	0.051436876	-0.0032645475	-1.3323571	0.21510639	-0.1685815	-0.89578017	0.08159242	-0.087516466	-1.4011769	0.27048243	-0.20142543	-0.96384795	0.028022292	-0.050339453	-1.040578	0.42311059	-0.26808046	-0.90275723	0.45807006	0.035682547	-1.0279701	0.38962021	-0.14989877	-0.91333839	0.45889613	-0.093283256	-1.0110658	0.80332035	-0.29599993	-0.9697079	0.87017464	0.083525381	-0.94722178	0.91749483	-0.24238994	-0.91253749	0.95592601	-0.0084017259	-1.1307914	0.94736024	-0.10064035	-1.0190487	1.4118217	-0.26765488	-1.0423123	1.3961054	0.058535405	-1.1165395	1.4299758	-0.11088278	-1.053547	1.0614884	-0.31620445	-1.1477187	1.0687765	0.089004334	-0.84060185	0.93197054	-0.29276339	-1.0894057	0.85479693	0.18210558
61	0.24	-1.3475815	0.085378551	-0.2190801	-0.77170073	0.039324575	-0.041481213	-1.3466655	0.22301924	-0.24750475	-0.91164368	0.051449738	-0.0032645791	-1.3204546	0.21683767	-0.16782058	-0.89588227	0.0816503	-0.087450313	-1.3908672	0.27079021	-0.20094601	-0.96389656	0.028020687	-0.050336707	-1.0287284	0.42411098	-0.26733191	-0.90161063	0.45809317	0.03619696	-1.016524	0.39096383	-0.14875557	-0.91157538	0.45922873	-0.092956343	-1.0052873	0.80440848	-0.29547192	-0.96486506	0.87059808	0.083820845	-0.94197154	0.91893404	-0.24235569	-0.90703235	0.95656001	-0.007579101	-1.1253383	0.94819427	-0.10076108	-1.0136124	1.4128775	-0.26710484	-1.036175	1.3971251	0.059225042	-1.1109409	1.4309645	-0.11017466	-1.0487099	1.0626775	-0.31598813	-1.1389697	1.0688526	0.089851136	-0.83736631	0.93097255	-0.29290988	-1.079346	0.8551354	0.1820959
62	0.244	-1.3328105	0.086261474	-0.21788424	-0.77178586	0.039353209	-0.041435638	-1.3346372	0.2237977	-0.24683726	-0.91165771	0.05145752	-0.0032649911	-1.3083122	0.21843855	-0.16709787	-0.89598301	0.081702835	-0.08737925	-1.3803856	0.27080773	-0.20044194	-0.9639307	0.028026683	-0.050336117	-1.0169814	0.42521842	-0.26653883	-0.90066917	0.45803248	0.036679226	-1.0051166	0.39233092	-0.14764304	-0.90986138	0.45953273	-0.092482226	-0.99957036	0.80564106	-0.29496168	-0.96003171	0.87102252	0.084126555	-0.9365484	0.92045813	-0.24227836	-0.90149941	0.95723041	-0.0067141079	-1.1198797	0.94908581	-0.10085767	-1.0081835	1.4139399	-0.26654634	-1.0300442	1.3981664	0.059889725	-1.1053623	1.4319354	-0.10948838	-1.0439447	1.0638868	-0.31584498	-1.1303389	1.0691212	0.091237248	-0.83424354	0.92999027	-0.29308143	-1.0691867	0.85551206	0.18206002
63	0.248	-1.3177209	0.087011869	-0.21681383	-0.77187316	0.039386917	-0.041376253	-1.3224925	0.22440745	-0.24614538	-0.91166536	0.051460822	-0.0032656633	-1.2961043	0.21989262	-0.16639626	-0.89608287	0.081753428	-0.087305709	-1.3696473	0.27055157	-0.19994447	-0.9639508	0.028040321	-0.050339122	-1.0053889	0.42639117	-0.26570943	-0.89987651	0.45790001	0.03714213	-0.99374055	0.39372868	-0.14656238	-0.90812915	0.45981394	-0.091922427	-0.99390335	0.80697386	-0.29447519	-0.95517987	0.8714615	0.084468271	-0.93106281	0.92200587	-0.24219077	-0.89612585	0.95791008	-0.0058834248	-1.1144046	0.95002298	-0.10090633	-1.0027205	1.4150081	-0.26595714	-1.0239577	1.3992206	0.060530452	-1.099787	1.4329021	-0.10881586	-1.0392401	1.0651138	-0.31574856	-1.1221898	1.0694429	0.09248249	-0.83120288	0.92903589	-0.29326589	-1.0589243	0.85592671	0.18200354
64	0.252	-1.3024028	0.087654146	-0.21587769	-0.77196722	0.039425767	-0.041300244	-1.3102141	0.22483721	-0.24540543	-0.9116807	0.051462169	-0.0032666266	-1.2839454	0.2211179	-0.16568499	-0.89619651	0.081807429	-0.087229505	-1.3586317	0.27002489	-0.19943286	-0.96396202	0.028058413	-0.050347881	-0.99395074	0.42760351	-0.26484703	-0.89911983	0.45776751	0.037635924	-0.98240276	0.39517118	-0.1455037	-0.9063788	0.46007231	-0.091323826	-0.98829367	0.80835314	-0.29402476	-0.95022009	0.87194021	0.084882907	-0.92562449	0.92352296	-0.24211891	-0.89105152	0.9585699	-0.0051509434	-1.1089197	0.95099127	-0.10091174	-0.99722083	1.4160866	-0.26533071	-1.0179414	1.4002846	0.061157829	-1.094204	1.4338725	-0.10814576	-1.0345784	1.0663546	-0.31564212	-1.1145137	1.0696605	0.093247223	-0.82822132	0.92811718	-0.29345488	-1.0485818	0.8563788	0.1819189
